<?xml version="1.0" encoding="utf-8"?>
<svg xmlns="http://www.w3.org/2000/svg" version="1.1" width="1000" height="800">

<line x1="200" y1="100" x2="200" y2="200" stroke="lightgrey" />
<text x="5" y="-5" fill="lightgrey" >0</text>
<line x1="200" y1="100" x2="200" y2="200" stroke="lightgrey" />
<text x="5" y="95" fill="lightgrey" >100</text>
<line x1="200" y1="100" x2="200" y2="200" stroke="lightgrey" />
<text x="5" y="195" fill="lightgrey" >200</text>
<line x1="200" y1="100" x2="200" y2="200" stroke="lightgrey" />
<text x="5" y="295" fill="lightgrey" >300</text>
<line x1="200" y1="100" x2="200" y2="200" stroke="lightgrey" />
<text x="5" y="395" fill="lightgrey" >400</text>
<line x1="200" y1="100" x2="200" y2="200" stroke="lightgrey" />
<text x="5" y="495" fill="lightgrey" >500</text>
<line x1="200" y1="100" x2="200" y2="200" stroke="lightgrey" />
<text x="5" y="595" fill="lightgrey" >600</text>
<line x1="200" y1="100" x2="200" y2="200" stroke="lightgrey" />
<text x="5" y="695" fill="lightgrey" >700</text>
<line x1="200" y1="100" x2="200" y2="200" stroke="lightgrey" />
<text x="5" y="795" fill="lightgrey" >800</text>
<line x1="200" y1="100" x2="200" y2="200" stroke="lightgrey" />
<text x="5" y="15" fill="lightgrey" >0</text>
<line x1="200" y1="100" x2="200" y2="200" stroke="lightgrey" />
<text x="105" y="15" fill="lightgrey" >100</text>
<line x1="200" y1="100" x2="200" y2="200" stroke="lightgrey" />
<text x="205" y="15" fill="lightgrey" >200</text>
<line x1="200" y1="100" x2="200" y2="200" stroke="lightgrey" />
<text x="305" y="15" fill="lightgrey" >300</text>
<line x1="200" y1="100" x2="200" y2="200" stroke="lightgrey" />
<text x="405" y="15" fill="lightgrey" >400</text>
<line x1="200" y1="100" x2="200" y2="200" stroke="lightgrey" />
<text x="505" y="15" fill="lightgrey" >500</text>
<line x1="200" y1="100" x2="200" y2="200" stroke="lightgrey" />
<text x="605" y="15" fill="lightgrey" >600</text>
<line x1="200" y1="100" x2="200" y2="200" stroke="lightgrey" />
<text x="705" y="15" fill="lightgrey" >700</text>
<line x1="200" y1="100" x2="200" y2="200" stroke="lightgrey" />
<text x="805" y="15" fill="lightgrey" >800</text>
<line x1="200" y1="100" x2="200" y2="200" stroke="lightgrey" />
<text x="905" y="15" fill="lightgrey" >900</text>
<line x1="200" y1="100" x2="200" y2="200" stroke="lightgrey" />
<text x="1005" y="15" fill="lightgrey" >1000</text>


</svg>
